<mxfile host="app.diagrams.net" agent="Mozilla/5.0 (Windows NT 10.0; Win64; x64) AppleWebKit/537.36 (KHTML, like Gecko) Chrome/138.0.0.0 Safari/537.36" version="27.1.6">
  <diagram name="Página-1" id="IpmAKofrDw2QBqaIdOL2">
    <mxGraphModel grid="1" page="1" gridSize="10" guides="1" tooltips="1" connect="1" arrows="1" fold="1" pageScale="1" pageWidth="827" pageHeight="1169" math="0" shadow="0">
      <root>
        <mxCell id="0" />
        <mxCell id="1" parent="0" />
        <mxCell id="emeNvtZWzEPwYmurZ9CY-1" value="CU026 Usar buscador global" style="swimlane;childLayout=stackLayout;resizeParent=1;resizeParentMax=0;startSize=20;horizontal=0;horizontalStack=1;" vertex="1" parent="1">
          <mxGeometry x="24" y="-1044" width="420" height="880" as="geometry">
            <mxRectangle x="200" y="80" width="40" height="50" as="alternateBounds" />
          </mxGeometry>
        </mxCell>
        <mxCell id="emeNvtZWzEPwYmurZ9CY-4" value="Usuario" style="swimlane;startSize=20;" vertex="1" parent="emeNvtZWzEPwYmurZ9CY-1">
          <mxGeometry x="20" width="400" height="880" as="geometry" />
        </mxCell>
        <mxCell id="dONWU5TF65ZIQMBgYRlY-9" style="edgeStyle=orthogonalEdgeStyle;rounded=0;orthogonalLoop=1;jettySize=auto;html=1;exitX=0.5;exitY=1;exitDx=0;exitDy=0;entryX=0.5;entryY=0;entryDx=0;entryDy=0;strokeColor=#FF0000;" edge="1" parent="emeNvtZWzEPwYmurZ9CY-4" source="emeNvtZWzEPwYmurZ9CY-5" target="ycTayPr6X4MgAZ-6NEUM-32">
          <mxGeometry relative="1" as="geometry" />
        </mxCell>
        <mxCell id="emeNvtZWzEPwYmurZ9CY-5" value="" style="ellipse;html=1;shape=startState;fillColor=#000000;strokeColor=#ff0000;fillStyle=auto;" vertex="1" parent="emeNvtZWzEPwYmurZ9CY-4">
          <mxGeometry x="180" y="30" width="30" height="30" as="geometry" />
        </mxCell>
        <mxCell id="emeNvtZWzEPwYmurZ9CY-79" style="edgeStyle=orthogonalEdgeStyle;rounded=0;orthogonalLoop=1;jettySize=auto;html=1;entryX=0;entryY=0.5;entryDx=0;entryDy=0;strokeColor=#FF0000;" edge="1" parent="emeNvtZWzEPwYmurZ9CY-4">
          <mxGeometry relative="1" as="geometry">
            <Array as="points">
              <mxPoint x="106" y="871" />
              <mxPoint x="106" y="652" />
            </Array>
            <mxPoint x="135" y="652" as="targetPoint" />
          </mxGeometry>
        </mxCell>
        <mxCell id="ycTayPr6X4MgAZ-6NEUM-32" value="Hacer click en la barra de búsqueda&amp;nbsp;" style="rounded=1;whiteSpace=wrap;html=1;arcSize=40;fontColor=#000000;fillColor=#ffffc0;strokeColor=#ff0000;" vertex="1" parent="emeNvtZWzEPwYmurZ9CY-4">
          <mxGeometry x="90" y="144" width="210" height="50" as="geometry" />
        </mxCell>
        <mxCell id="XF5VWK1gYmY0M9WSZOMS-35" value="Escribir búsqueda" style="rounded=1;whiteSpace=wrap;html=1;arcSize=40;fontColor=#000000;fillColor=#ffffc0;strokeColor=#ff0000;" vertex="1" parent="emeNvtZWzEPwYmurZ9CY-4">
          <mxGeometry x="105" y="304" width="180" height="79" as="geometry" />
        </mxCell>
        <mxCell id="dONWU5TF65ZIQMBgYRlY-11" style="edgeStyle=orthogonalEdgeStyle;rounded=0;orthogonalLoop=1;jettySize=auto;html=1;exitX=0;exitY=0.5;exitDx=0;exitDy=0;entryX=0.5;entryY=0;entryDx=0;entryDy=0;strokeColor=#FFFFFF;" edge="1" parent="emeNvtZWzEPwYmurZ9CY-1">
          <mxGeometry relative="1" as="geometry">
            <mxPoint x="496" y="513.5" as="sourcePoint" />
            <mxPoint x="285" y="614" as="targetPoint" />
          </mxGeometry>
        </mxCell>
        <mxCell id="emeNvtZWzEPwYmurZ9CY-8" value="Sistema" style="swimlane;startSize=20;" vertex="1" parent="1">
          <mxGeometry x="444" y="-1044" width="576" height="880" as="geometry" />
        </mxCell>
        <mxCell id="ycTayPr6X4MgAZ-6NEUM-13" value="&lt;span style=&quot;font-family: Calibri; font-size: 14.6667px; white-space-collapse: preserve; background-color: rgb(255, 255, 255);&quot;&gt;Muestra mensaje “No se encontró nada. Intenta con otro término&quot;.&lt;/span&gt;" style="rounded=1;whiteSpace=wrap;html=1;arcSize=40;fontColor=#000000;fillColor=#ffffc0;strokeColor=#ff0000;" vertex="1" parent="emeNvtZWzEPwYmurZ9CY-8">
          <mxGeometry x="87" y="684" width="174" height="122" as="geometry" />
        </mxCell>
        <mxCell id="ycTayPr6X4MgAZ-6NEUM-33" value="Despliega el buscador global" style="rounded=1;whiteSpace=wrap;html=1;arcSize=40;fontColor=#000000;fillColor=#ffffc0;strokeColor=#ff0000;" vertex="1" parent="emeNvtZWzEPwYmurZ9CY-8">
          <mxGeometry x="310" y="129.5" width="180" height="79" as="geometry" />
        </mxCell>
        <mxCell id="emeNvtZWzEPwYmurZ9CY-17" value="" style="ellipse;html=1;shape=endState;fillColor=#000000;strokeColor=#ff0000;" vertex="1" parent="emeNvtZWzEPwYmurZ9CY-8">
          <mxGeometry x="426" y="834" width="30" height="30" as="geometry" />
        </mxCell>
        <mxCell id="dONWU5TF65ZIQMBgYRlY-12" style="edgeStyle=orthogonalEdgeStyle;rounded=0;orthogonalLoop=1;jettySize=auto;html=1;exitX=0.5;exitY=1;exitDx=0;exitDy=0;entryX=0.5;entryY=0;entryDx=0;entryDy=0;strokeColor=#FF0000;" edge="1" parent="emeNvtZWzEPwYmurZ9CY-8" source="QA8IRypYu4qGjrA7JDfg-8" target="emeNvtZWzEPwYmurZ9CY-17">
          <mxGeometry relative="1" as="geometry">
            <Array as="points">
              <mxPoint x="440" y="684" />
            </Array>
          </mxGeometry>
        </mxCell>
        <mxCell id="QA8IRypYu4qGjrA7JDfg-8" value="Redirige al usuario a los resultados" style="rounded=1;whiteSpace=wrap;html=1;arcSize=40;fontColor=#000000;fillColor=#ffffc0;strokeColor=#ff0000;" vertex="1" parent="emeNvtZWzEPwYmurZ9CY-8">
          <mxGeometry x="336" y="634" width="210" height="50" as="geometry" />
        </mxCell>
        <mxCell id="XF5VWK1gYmY0M9WSZOMS-38" style="edgeStyle=orthogonalEdgeStyle;rounded=0;orthogonalLoop=1;jettySize=auto;html=1;entryX=0.5;entryY=0;entryDx=0;entryDy=0;" edge="1" parent="emeNvtZWzEPwYmurZ9CY-8" source="XF5VWK1gYmY0M9WSZOMS-34" target="ycTayPr6X4MgAZ-6NEUM-13">
          <mxGeometry relative="1" as="geometry">
            <mxPoint x="166" y="474" as="targetPoint" />
            <Array as="points">
              <mxPoint x="400" y="424" />
              <mxPoint x="176" y="424" />
            </Array>
          </mxGeometry>
        </mxCell>
        <mxCell id="XF5VWK1gYmY0M9WSZOMS-39" value="no" style="edgeLabel;html=1;align=center;verticalAlign=middle;resizable=0;points=[];" connectable="0" vertex="1" parent="XF5VWK1gYmY0M9WSZOMS-38">
          <mxGeometry x="-0.7431" y="2" relative="1" as="geometry">
            <mxPoint x="-1" as="offset" />
          </mxGeometry>
        </mxCell>
        <mxCell id="XF5VWK1gYmY0M9WSZOMS-34" value="¿Campo digitado?" style="rhombus;whiteSpace=wrap;html=1;fontColor=#000000;fillColor=#ffffc0;strokeColor=#ff0000;" vertex="1" parent="emeNvtZWzEPwYmurZ9CY-8">
          <mxGeometry x="334.5" y="294" width="131" height="108" as="geometry" />
        </mxCell>
        <mxCell id="QA8IRypYu4qGjrA7JDfg-9" style="edgeStyle=orthogonalEdgeStyle;rounded=0;orthogonalLoop=1;jettySize=auto;html=1;exitX=1;exitY=0.5;exitDx=0;exitDy=0;entryX=0.5;entryY=0;entryDx=0;entryDy=0;strokeColor=#FF0000;" edge="1" parent="emeNvtZWzEPwYmurZ9CY-8" source="XF5VWK1gYmY0M9WSZOMS-34" target="QA8IRypYu4qGjrA7JDfg-8">
          <mxGeometry relative="1" as="geometry">
            <mxPoint x="-30" y="639" as="sourcePoint" />
            <Array as="points">
              <mxPoint x="556" y="348" />
              <mxPoint x="556" y="514" />
              <mxPoint x="441" y="514" />
            </Array>
          </mxGeometry>
        </mxCell>
        <mxCell id="XF5VWK1gYmY0M9WSZOMS-37" value="si" style="edgeLabel;html=1;align=center;verticalAlign=middle;resizable=0;points=[];" connectable="0" vertex="1" parent="QA8IRypYu4qGjrA7JDfg-9">
          <mxGeometry x="-0.9159" y="-4" relative="1" as="geometry">
            <mxPoint y="-4" as="offset" />
          </mxGeometry>
        </mxCell>
        <mxCell id="ycTayPr6X4MgAZ-6NEUM-35" style="edgeStyle=orthogonalEdgeStyle;rounded=0;orthogonalLoop=1;jettySize=auto;html=1;exitX=1;exitY=0.5;exitDx=0;exitDy=0;fillColor=#f8cecc;strokeColor=#b85450;" edge="1" parent="1" source="ycTayPr6X4MgAZ-6NEUM-32" target="ycTayPr6X4MgAZ-6NEUM-33">
          <mxGeometry relative="1" as="geometry" />
        </mxCell>
        <mxCell id="dONWU5TF65ZIQMBgYRlY-10" style="edgeStyle=orthogonalEdgeStyle;rounded=0;orthogonalLoop=1;jettySize=auto;html=1;exitX=0.5;exitY=1;exitDx=0;exitDy=0;strokeColor=#FF0000;entryX=0.5;entryY=0;entryDx=0;entryDy=0;" edge="1" parent="1" source="ycTayPr6X4MgAZ-6NEUM-33" target="XF5VWK1gYmY0M9WSZOMS-35">
          <mxGeometry relative="1" as="geometry">
            <mxPoint x="244" y="-720" as="targetPoint" />
          </mxGeometry>
        </mxCell>
        <mxCell id="XF5VWK1gYmY0M9WSZOMS-36" style="edgeStyle=orthogonalEdgeStyle;rounded=0;orthogonalLoop=1;jettySize=auto;html=1;entryX=0;entryY=0.5;entryDx=0;entryDy=0;" edge="1" parent="1" source="XF5VWK1gYmY0M9WSZOMS-35" target="XF5VWK1gYmY0M9WSZOMS-34">
          <mxGeometry relative="1" as="geometry">
            <Array as="points">
              <mxPoint x="779" y="-700" />
            </Array>
          </mxGeometry>
        </mxCell>
        <mxCell id="OHdJ2UwBlpSjYM_FWJC1-4" style="edgeStyle=orthogonalEdgeStyle;rounded=0;orthogonalLoop=1;jettySize=auto;html=1;exitX=1;exitY=0.5;exitDx=0;exitDy=0;fillColor=#f8cecc;strokeColor=#b85450;entryX=0;entryY=0.5;entryDx=0;entryDy=0;" edge="1" parent="1" target="emeNvtZWzEPwYmurZ9CY-17">
          <mxGeometry relative="1" as="geometry">
            <mxPoint x="705" y="-299.5" as="sourcePoint" />
            <mxPoint x="1115" y="-299.5" as="targetPoint" />
          </mxGeometry>
        </mxCell>
      </root>
    </mxGraphModel>
  </diagram>
</mxfile>
